<?xml version="1.0" standalone="no"?>
<!DOCTYPE svg PUBLIC "-//W3C//DTD SVG 20010904//EN"
 "http://www.w3.org/TR/2001/REC-SVG-20010904/DTD/svg10.dtd">
<svg version="1.0" xmlns="http://www.w3.org/2000/svg"
 width="500.000000pt" height="500.000000pt" viewBox="0 0 500.000000 500.000000"
 preserveAspectRatio="xMidYMid meet">

<g transform="translate(0.000000,500.000000) scale(0.100000,-0.100000)"
fill="#000000" stroke="none">
<path d="M2737 3586 c-12 -30 -19 -161 -9 -151 8 8 23 165 16 165 -1 0 -4 -6
-7 -14z"/>
<path d="M2861 3510 c-23 -33 -38 -60 -33 -60 4 0 13 8 20 18 45 65 62 95 59
99 -3 2 -23 -23 -46 -57z"/>
<path d="M2598 3500 c-3 -16 -1 -30 4 -30 4 0 8 14 8 30 0 17 -2 30 -4 30 -2
0 -6 -13 -8 -30z"/>
<path d="M2668 3502 c-5 -66 -4 -83 7 -92 8 -7 10 5 7 48 -4 60 -11 81 -14 44z"/>
<path d="M2806 3425 c-11 -8 -15 -15 -9 -15 6 0 16 7 23 15 16 19 11 19 -14 0z"/>
<path d="M2876 3425 c-9 -26 -7 -32 5 -12 6 10 9 21 6 23 -2 3 -7 -2 -11 -11z"/>
<path d="M2756 3414 c-4 -10 -1 -14 6 -12 15 5 23 28 10 28 -5 0 -13 -7 -16
-16z"/>
<path d="M2557 3395 c-4 -8 -2 -17 3 -20 6 -4 10 3 10 14 0 25 -6 27 -13 6z"/>
<path d="M2614 3376 c13 -32 13 -36 -5 -52 -14 -12 -19 -13 -19 -4 0 7 -3 10
-7 6 -9 -8 -9 -12 -13 -53 l-2 -28 -11 25 c-16 34 -79 121 -85 116 -8 -9 11
-48 39 -81 26 -29 30 -42 31 -95 1 -56 4 -66 37 -106 20 -24 50 -47 66 -52 17
-5 29 -15 27 -22 -2 -11 0 -11 11 -1 13 10 83 10 91 0 1 -2 12 -18 24 -35 12
-17 31 -34 43 -37 21 -6 21 -6 2 16 -10 12 -25 31 -33 41 -14 18 -13 18 10 12
21 -6 19 -4 -8 13 -18 12 -30 26 -27 31 8 13 52 13 60 0 3 -5 16 -10 27 -10
21 0 21 0 2 19 -10 10 -22 17 -26 14 -5 -2 -8 1 -8 6 0 14 1 14 43 -4 42 -17
47 -18 47 -6 0 12 -60 35 -86 33 -25 -2 -40 13 -24 23 8 5 8 11 0 20 -8 10
-22 7 -68 -17 -31 -16 -50 -24 -41 -16 9 7 14 18 12 24 -2 6 9 11 27 11 32 0
73 30 66 48 -2 6 6 12 17 13 15 1 18 -2 9 -7 -10 -6 -10 -10 2 -20 8 -7 13
-18 11 -24 -8 -21 20 -46 43 -40 19 5 20 8 10 21 -11 13 -8 15 25 9 33 -5 37
-4 27 8 -8 9 -30 15 -56 15 -40 0 -44 2 -44 24 0 69 -46 74 -55 6 -3 -26 -55
-44 -55 -19 0 6 -14 -1 -31 -15 -49 -41 -57 -30 -12 17 40 41 47 54 44 90 -1
17 -21 25 -21 7 0 -5 -18 -28 -41 -52 -47 -49 -42 -34 8 29 19 23 33 50 31 60
-3 19 12 21 44 8 13 -5 15 -2 11 14 -3 12 -10 24 -15 27 -15 10 -58 -5 -58
-20 0 -14 -56 -30 -72 -20 -5 3 -7 12 -4 20 8 20 -4 44 -20 44 -12 0 -12 -5 0
-34z m26 -43 c0 -5 -10 -19 -21 -33 l-21 -25 18 33 c18 32 24 38 24 25z"/>
<path d="M2875 3357 c-4 -10 -3 -23 4 -30 16 -16 26 0 14 25 -10 21 -11 22
-18 5z"/>
<path d="M2947 3345 c-36 -25 -45 -35 -29 -35 8 1 79 60 71 60 -2 0 -21 -11
-42 -25z"/>
<path d="M2950 3300 c-41 -15 -78 -26 -81 -24 -3 2 -6 -4 -6 -12 0 -21 38 -12
122 30 83 42 69 44 -35 6z"/>
<path d="M2797 3299 c7 -7 15 -10 18 -7 3 3 -2 9 -12 12 -14 6 -15 5 -6 -5z"/>
<path d="M3033 3266 c-29 -11 -53 -24 -53 -28 0 -8 90 29 105 43 11 11 12 11
-52 -15z"/>
<path d="M2916 3225 c-6 -17 9 -21 19 -5 4 6 11 7 17 4 7 -4 8 -2 4 4 -10 17
-33 15 -40 -3z"/>
<path d="M3020 3181 c0 -4 11 -6 25 -3 14 2 25 6 25 8 0 2 -11 4 -25 4 -14 0
-25 -4 -25 -9z"/>
<path d="M2940 3080 c0 -9 70 -23 77 -16 7 6 -10 12 -49 19 -16 2 -28 1 -28
-3z"/>
<path d="M3257 2232 c-17 -38 -85 -80 -107 -67 -6 4 -10 -5 -10 -20 0 -18 -6
-29 -20 -32 -14 -4 -21 -17 -25 -52 -14 -106 -17 -121 -34 -143 -34 -44 -101
-146 -101 -153 0 -5 22 16 50 46 56 61 64 55 20 -15 -17 -27 -33 -62 -36 -80
-7 -40 3 -27 57 77 26 49 47 77 58 77 34 -1 51 -27 65 -101 18 -94 32 -129 50
-129 13 0 13 4 0 36 -17 40 -28 124 -16 124 4 0 13 -5 20 -12 6 -6 15 -9 19
-5 4 4 1 13 -5 19 -18 18 -14 32 4 17 13 -10 17 -10 25 2 12 19 11 36 -1 44
-6 4 -8 10 -5 15 3 5 -6 3 -21 -5 -40 -20 -60 -8 -54 34 1 9 -4 12 -15 7 -9
-3 -14 -2 -11 3 3 5 -2 15 -11 22 -17 15 -43 70 -43 91 0 7 11 -4 24 -25 37
-61 67 -87 98 -87 34 0 38 25 6 33 l-23 6 23 21 c12 11 22 25 22 30 0 10 -27
3 -46 -12 -7 -5 -11 2 -12 22 0 16 3 32 8 35 4 3 3 23 -2 45 -11 42 -4 65 12
40 6 -8 10 -23 10 -33 0 -28 37 -70 65 -73 19 -2 22 1 18 14 -4 9 -13 22 -22
28 -12 10 -11 13 7 23 13 7 20 16 17 21 -3 6 1 7 9 4 9 -3 16 -14 16 -24 0
-11 5 -22 10 -25 6 -3 10 -17 10 -29 0 -26 23 -36 75 -35 l30 1 -27 10 c-23 8
-27 14 -22 35 5 17 3 24 -7 23 -31 -5 -39 1 -39 26 0 20 4 25 16 20 14 -5 15
-4 4 9 -10 12 -10 15 3 15 8 0 25 9 38 20 21 17 22 19 6 20 -10 0 -32 -7 -48
-16 -50 -26 -45 -7 7 25 58 37 33 41 -36 6 -64 -32 -84 -25 -76 26 8 49 -4 49
-27 1z m-37 -398 c0 -19 -28 -30 -42 -16 -8 8 -8 15 1 26 14 17 41 10 41 -10z"/>
<path d="M1869 2095 c-1 -5 0 -25 1 -43 1 -23 -5 -42 -21 -58 -26 -28 -41 -30
-59 -9 -9 11 -16 13 -23 6 -7 -7 -6 -15 3 -26 11 -13 10 -19 -9 -38 -11 -13
-21 -27 -21 -33 0 -5 -16 -20 -35 -33 -38 -26 -41 -40 -5 -21 31 16 45 -1 22
-26 -10 -11 -27 -33 -36 -49 -10 -17 -12 -23 -5 -14 8 8 27 24 43 35 l30 19
-28 -48 c-32 -54 -30 -74 3 -29 18 25 26 29 55 25 19 -2 37 0 41 7 4 7 0 10
-11 8 -11 -2 -23 6 -29 19 -7 13 -15 20 -18 16 -4 -3 -7 8 -7 25 0 18 5 32 10
32 6 0 10 -7 10 -15 0 -19 32 -35 57 -29 13 4 28 -2 39 -14 13 -13 30 -19 51
-17 42 3 93 -36 75 -58 -17 -20 -57 -14 -57 9 0 10 -8 20 -18 22 -11 2 -17 -3
-17 -15 0 -11 -9 -29 -21 -41 -11 -13 -17 -27 -12 -34 4 -7 13 -42 20 -78 8
-41 11 -49 9 -22 -2 23 0 59 6 79 l10 37 18 -24 c10 -14 21 -44 25 -69 4 -24
10 -53 15 -65 14 -33 12 49 -1 95 -7 20 -9 45 -5 55 6 16 8 16 26 -1 11 -10
20 -24 20 -30 0 -7 9 -23 21 -36 l20 -24 -7 24 c-3 13 -14 42 -25 65 -21 48
-10 61 31 38 22 -13 31 -14 43 -4 21 18 -3 86 -32 90 -15 2 -21 11 -21 28 0
19 5 24 25 24 14 0 26 -4 26 -10 1 -5 2 -15 3 -21 0 -7 19 -14 41 -16 l40 -4
-28 23 c-15 13 -29 33 -30 46 -1 12 -5 22 -10 22 -4 0 -5 5 -2 10 3 6 -1 10
-10 10 -33 0 -3 19 40 26 66 9 45 24 -32 22 -45 -2 -68 1 -71 10 -2 6 -13 12
-24 12 -20 0 -20 4 -14 62 7 66 -3 69 -23 6 -7 -20 -19 -42 -28 -50 -14 -11
-15 -11 -9 0 7 12 4 12 -14 2 l-23 -12 28 -22 c19 -15 26 -27 20 -36 -6 -10
-4 -12 9 -7 13 5 19 1 23 -12 3 -12 11 -17 19 -14 8 3 14 1 14 -5 0 -12 -26
-23 -42 -18 -50 16 -67 15 -70 -1 -5 -26 30 -57 47 -43 15 12 27 -1 32 -34 3
-18 2 -18 -23 -1 -15 9 -41 19 -58 20 -74 8 -106 23 -106 50 1 6 5 2 11 -8 8
-14 14 -16 25 -6 7 6 21 8 30 5 14 -5 15 -4 5 8 -17 20 -4 45 21 38 16 -4 19
-1 15 14 -18 61 -18 83 -2 92 16 8 16 10 1 15 -9 4 -16 17 -16 29 0 23 -19 61
-21 43z"/>
<path d="M3455 2041 c-3 -5 4 -12 15 -16 11 -4 18 -10 15 -14 -8 -13 85 -45
97 -33 6 6 -11 20 -53 41 -71 35 -66 34 -74 22z"/>
<path d="M3320 2012 c0 -4 9 -15 20 -25 19 -16 19 -19 6 -46 -9 -16 -26 -32
-38 -35 -14 -5 -18 -9 -10 -13 6 -2 12 -14 12 -24 0 -11 4 -18 9 -15 5 3 7 15
4 26 -7 25 -3 25 56 -4 30 -14 60 -22 76 -19 25 5 25 6 6 19 -11 8 -26 12 -34
8 -20 -7 -46 37 -40 68 4 19 -2 30 -22 47 -29 22 -45 27 -45 13z"/>
<path d="M3488 1958 c6 -6 18 -8 28 -6 14 3 12 5 -9 10 -19 3 -25 2 -19 -4z"/>
<path d="M2937 1873 c-4 -3 -7 -11 -7 -17 0 -6 5 -5 12 2 6 6 9 14 7 17 -3 3
-9 2 -12 -2z"/>
<path d="M2190 1802 c0 -4 22 -15 49 -23 56 -17 58 -7 4 16 -40 17 -53 19 -53
7z"/>
<path d="M3302 1780 c17 -46 57 -73 43 -30 -9 29 4 25 42 -12 30 -29 49 -26
20 4 -6 7 -19 24 -28 38 -12 19 -25 25 -51 25 -34 0 -35 -1 -26 -25z"/>
<path d="M1780 1706 c0 -14 5 -28 10 -31 6 -3 10 5 10 19 0 14 -4 28 -10 31
-6 3 -10 -5 -10 -19z"/>
<path d="M1817 1702 c-9 -13 5 -63 16 -59 5 1 14 13 18 25 6 16 4 24 -11 32
-10 5 -21 7 -23 2z"/>
<path d="M2130 1702 c0 -5 14 -21 30 -35 36 -32 39 -23 5 16 -25 28 -35 33
-35 19z"/>
<path d="M2120 1661 c0 -8 14 -27 30 -43 17 -15 30 -24 30 -18 0 16 -59 77
-60 61z"/>
<path d="M3265 1590 c10 -11 20 -20 23 -20 3 0 -3 9 -13 20 -10 11 -20 20 -23
20 -3 0 3 -9 13 -20z"/>
<path d="M1807 1577 c-11 -29 -9 -43 4 -30 6 6 9 19 7 29 -3 18 -4 18 -11 1z"/>
</g>
</svg>
