<?xml version="1.0" standalone="no"?>
<!DOCTYPE svg PUBLIC "-//W3C//DTD SVG 20010904//EN"
 "http://www.w3.org/TR/2001/REC-SVG-20010904/DTD/svg10.dtd">
<svg version="1.0" xmlns="http://www.w3.org/2000/svg"
 width="280.000000pt" height="392.000000pt" viewBox="0 0 280.000000 392.000000"
 preserveAspectRatio="xMidYMid meet">
<metadata>
Created by potrace 1.16, written by Peter Selinger 2001-2019
</metadata>
<g transform="translate(0.000000,392.000000) scale(0.100000,-0.100000)"
fill="#000000" stroke="none">
<path d="M1166 3421 c-4 -6 -18 -8 -32 -5 -15 4 -24 2 -24 -6 0 -6 -4 -8 -10
-5 -5 3 -10 -3 -10 -14 0 -11 -8 -25 -17 -30 -23 -13 -8 -14 17 -1 28 15 34
-4 14 -46 -13 -26 -22 -34 -36 -31 -10 3 -16 1 -12 -4 3 -5 13 -9 22 -9 27 -1
52 -25 52 -50 0 -31 28 -87 48 -95 9 -3 24 3 36 16 12 12 15 19 9 15 -7 -4
-22 -9 -33 -11 -18 -4 -20 0 -16 41 5 54 10 61 32 43 16 -13 17 -11 10 15 -18
74 -19 89 -6 81 10 -6 12 -3 8 13 -6 22 -6 22 25 5 18 -10 34 -21 35 -25 2 -5
8 -8 14 -8 6 0 3 9 -7 20 -30 33 -5 23 37 -16 27 -24 43 -33 50 -26 28 28 -38
92 -95 92 -32 0 -56 19 -49 38 5 16 -10 16 -26 0 -10 -10 -15 -10 -21 1 -6 9
-11 10 -15 2z"/>
<path d="M1905 2630 c-54 -34 -121 -126 -116 -158 2 -11 -2 -11 -19 -2 -12 6
-28 9 -36 6 -8 -3 -14 -1 -14 4 0 5 -19 7 -42 5 -30 -3 -48 1 -60 12 -24 21
-23 10 3 -43 14 -27 27 -40 35 -37 8 3 14 1 14 -5 0 -6 -8 -9 -17 -8 -10 2
-21 -2 -25 -8 -5 -8 -8 -7 -8 2 0 7 -5 10 -10 7 -6 -4 -7 -11 -4 -17 4 -6 10
-25 14 -43 6 -29 4 -34 -14 -41 -17 -6 -12 -8 22 -11 27 -3 42 -9 39 -16 -5
-17 35 -58 51 -52 10 4 12 -2 7 -25 -7 -30 -6 -30 20 -18 24 11 29 10 41 -7 8
-10 14 -14 14 -9 0 6 13 9 29 6 23 -3 29 0 34 19 10 37 -19 75 -59 77 -19 2
-34 -2 -34 -8 0 -6 6 -10 13 -8 7 2 14 0 15 -4 1 -5 0 -8 -3 -8 -3 0 -13 0
-24 0 -10 0 -21 9 -24 20 -4 17 0 20 26 22 18 0 43 0 56 -1 18 -2 22 2 18 13
-4 9 -1 16 4 16 7 0 9 -11 6 -26 -3 -20 5 -34 41 -71 25 -25 59 -66 76 -92 17
-26 31 -40 34 -33 5 16 -36 128 -53 142 -14 12 -8 59 12 78 7 7 13 24 13 36 0
20 8 25 58 35 42 9 64 10 86 1 34 -13 63 3 36 20 -32 20 -121 34 -158 24 -21
-5 -44 -8 -53 -6 -14 2 -44 43 -50 67 -1 6 -9 16 -18 22 -11 9 -13 15 -4 20 6
5 13 17 15 28 1 10 18 32 36 48 51 46 36 65 -23 27z"/>
<path d="M1067 2472 c-9 -23 -23 -42 -30 -42 -15 0 -55 -41 -81 -83 -12 -20
-21 -25 -29 -18 -17 14 -77 -16 -77 -39 0 -9 9 -29 20 -43 11 -14 20 -30 20
-36 0 -6 4 -11 9 -11 8 0 15 -55 24 -175 1 -11 8 -26 15 -33 19 -21 15 -34 -7
-22 -11 5 -30 10 -43 9 -13 0 -17 -3 -10 -6 17 -7 15 -21 -3 -25 -11 -2 -8
-10 13 -33 16 -17 27 -35 25 -41 -6 -18 56 -56 82 -50 14 4 27 1 31 -6 5 -8
10 -4 15 10 8 21 27 22 80 6 9 -2 22 2 29 11 7 8 18 15 24 15 6 0 -1 -12 -16
-25 -16 -13 -28 -30 -28 -37 0 -9 3 -9 12 0 16 16 31 15 21 0 -4 -7 -8 -15 -8
-18 0 -3 -6 -14 -12 -25 -12 -20 -12 -20 -13 2 0 12 -5 25 -11 29 -6 3 -9 15
-6 25 3 12 0 19 -9 19 -8 0 -14 -8 -14 -17 -1 -16 -2 -16 -16 2 -13 17 -16 18
-24 5 -13 -21 -12 -37 3 -43 8 -4 6 -6 -4 -6 -9 -1 -28 -14 -42 -31 -31 -34
-47 -39 -40 -11 3 11 10 18 17 15 7 -3 18 7 24 21 17 36 15 53 -3 29 -8 -11
-15 -14 -15 -6 0 6 -12 12 -27 12 -21 0 -24 3 -14 9 11 7 2 15 -35 32 -57 27
-78 45 -69 59 3 6 -1 7 -9 4 -20 -8 -20 -14 2 -31 13 -11 14 -16 4 -20 -10 -4
-10 -8 -1 -19 15 -18 7 -18 -39 1 -33 13 -35 13 -18 0 11 -8 23 -15 28 -15 4
0 8 -7 8 -15 0 -11 -7 -14 -24 -9 -18 4 -28 0 -42 -21 -11 -15 -44 -53 -75
-84 -53 -54 -82 -106 -54 -95 7 3 12 12 11 21 0 8 9 22 22 31 19 12 22 13 20
1 -4 -18 56 -13 88 8 13 8 28 12 34 8 5 -3 10 -1 10 4 0 6 -5 11 -10 11 -6 0
-5 6 2 15 11 12 15 12 30 -6 9 -11 30 -21 45 -22 19 -2 28 -8 28 -20 0 -20 3
-21 29 -11 24 9 51 -23 36 -41 -19 -23 56 -155 88 -155 20 0 14 24 -10 39 -21
13 -21 14 -3 27 16 12 17 14 2 20 -21 8 -22 53 -2 60 8 4 12 10 9 15 -3 5 0 9
6 9 6 0 8 5 5 10 -4 6 -12 7 -18 4 -9 -5 -9 -4 0 6 9 10 16 9 34 -4 19 -13 20
-16 7 -16 -23 0 -9 -38 20 -58 20 -13 22 -12 29 4 4 11 19 32 34 49 28 29 28
29 50 10 16 -14 23 -16 26 -7 7 17 23 15 23 -4 0 -11 5 -14 16 -10 33 13 58
-45 32 -73 -8 -9 -8 -11 -2 -8 8 5 11 -6 10 -33 -3 -57 -56 -93 -56 -39 0 11
-4 18 -10 14 -6 -4 -6 -15 0 -31 6 -14 7 -36 4 -50 -5 -19 -11 -23 -30 -20
-13 3 -24 0 -24 -5 0 -5 9 -9 19 -9 16 0 47 -37 69 -81 1 -3 -17 -12 -42 -19
-25 -7 -53 -21 -63 -32 -18 -20 -18 -20 -24 23 l-6 44 -2 -55 c-1 -42 -4 -52
-12 -40 -9 12 -10 12 -5 -3 3 -11 -1 -40 -9 -65 -11 -32 -14 -58 -8 -86 4 -23
8 -54 9 -71 1 -16 2 -45 3 -64 0 -19 4 -31 8 -27 4 4 6 23 4 42 -1 19 5 57 14
85 12 35 15 68 12 103 -6 48 -5 49 7 22 l13 -28 20 35 c12 19 24 43 27 53 4
11 16 30 27 44 11 14 19 21 17 15 -11 -27 -34 -73 -50 -96 -19 -29 -13 -46 10
-26 13 10 14 9 10 -3 -3 -8 -13 -14 -22 -13 -12 1 -23 -12 -32 -34 -18 -41
-14 -49 18 -34 20 10 21 10 4 -1 -63 -44 -80 -79 -44 -95 19 -8 29 -5 55 14
42 33 62 64 79 129 12 48 12 71 -1 139 -4 18 0 20 29 17 27 -3 37 1 45 17 7
12 20 21 31 21 10 0 33 12 51 28 28 22 32 24 25 7 -18 -44 -46 -138 -46 -155
0 -24 36 -78 76 -113 25 -22 39 -26 59 -21 29 7 67 58 59 79 -11 27 16 24 30
-2 19 -37 73 -76 96 -70 14 3 20 -1 22 -17 5 -32 31 -25 47 12 8 17 20 32 27
32 7 0 22 20 34 45 18 37 21 59 18 115 l-4 68 34 -14 c19 -8 49 -14 67 -14 18
0 38 -7 45 -15 17 -21 33 -19 21 3 -5 9 -7 37 -4 62 4 41 2 48 -30 79 -46 43
-128 72 -171 60 -39 -11 -56 -11 -56 0 0 5 12 12 27 16 25 6 26 7 9 17 -10 6
-36 8 -58 5 l-39 -5 23 23 c32 31 58 37 92 20 31 -17 74 -19 95 -6 10 7 8 12
-10 25 -29 20 -55 20 -131 0 -33 -8 -62 -13 -65 -10 -8 8 59 46 81 46 12 0 16
5 12 16 -3 9 -6 20 -6 25 0 5 -5 9 -11 9 -6 0 -8 -8 -5 -18 5 -14 -2 -20 -34
-29 -40 -10 -40 -10 -40 18 0 39 -14 36 -34 -6 -20 -42 -32 -44 -40 -9 -5 20
-1 33 15 50 19 20 20 24 6 30 -9 3 -21 3 -28 -1 -6 -4 -15 -1 -20 6 -4 7 -11
10 -16 6 -4 -5 -2 -12 5 -16 10 -6 11 -17 5 -40 l-8 -33 -38 68 c-39 70 -40
91 -9 127 8 9 26 17 39 17 18 0 23 5 21 19 -2 10 6 29 17 41 l20 23 -21 -13
c-19 -12 -26 -10 -58 16 -20 16 -36 32 -36 36 0 9 -79 61 -95 64 -5 0 -30 2
-54 2 -38 2 -42 4 -30 18 10 13 10 17 -2 25 -21 13 -30 11 -55 -12 -24 -22
-44 -19 -44 8 0 9 6 13 15 10 8 -4 17 -2 20 3 4 6 -1 10 -9 10 -9 0 -16 5 -16
11 0 5 -5 7 -11 3 -8 -5 -10 1 -7 20 3 14 2 29 -3 32 -5 2 -6 19 -2 37 6 31 6
32 -14 14 -11 -9 -22 -15 -25 -12 -5 5 4 65 13 90 2 6 -15 44 -39 86 -23 42
-42 85 -43 95 0 18 -1 18 -8 0 -6 -17 -12 -14 -43 25 -19 24 -37 50 -40 58 -2
9 -11 -3 -21 -27z m598 -962 c-3 -5 -1 -10 4 -10 6 0 11 5 11 11 0 6 15 -5 33
-24 17 -18 41 -39 52 -46 18 -11 18 -12 -7 -6 -16 3 -28 1 -28 -5 0 -5 5 -10
10 -10 6 0 19 -9 30 -20 11 -11 28 -20 37 -20 18 0 53 -28 53 -42 0 -4 -17 3
-39 17 -21 15 -48 27 -60 28 -11 1 -21 7 -21 14 0 7 -9 17 -20 23 -14 8 -20 8
-20 0 0 -6 7 -13 15 -16 19 -8 22 -88 3 -81 -7 2 -13 16 -12 30 1 29 -13 36
-22 12 -4 -8 -10 -15 -16 -15 -5 0 -6 5 -3 11 4 6 -3 20 -14 31 -13 11 -20 27
-17 36 8 25 -6 39 -38 38 -31 -1 -41 11 -27 32 7 12 14 11 39 -2 17 -9 38 -26
46 -38 15 -22 16 -22 16 -2 0 11 -5 25 -11 31 -10 10 -5 33 7 33 3 0 2 -4 -1
-10z"/>
<path d="M421 1324 c-29 -15 -49 -29 -44 -33 5 -3 14 -18 20 -33 11 -25 14
-26 45 -15 18 7 36 16 39 21 7 8 238 -100 250 -118 4 -4 9 -4 13 2 7 11 44 5
64 -11 7 -5 15 -8 17 -5 3 3 -7 11 -21 19 -15 8 -51 46 -80 85 -63 85 -112
114 -195 114 -39 0 -70 -8 -108 -26z"/>
<path d="M680 1087 c-53 -18 -97 -47 -109 -74 -9 -21 -7 -28 19 -53 42 -41 70
-48 92 -20 10 12 18 28 18 36 0 14 49 19 123 14 16 -1 48 4 72 11 l42 13 -71
36 c-83 42 -136 53 -186 37z"/>
<path d="M1005 1010 c6 -20 -9 -28 -20 -10 -3 6 -14 10 -23 10 -11 -1 -7 -6
11 -16 20 -11 27 -21 24 -34 -3 -14 0 -17 12 -13 14 4 14 3 1 -6 -8 -6 -39
-11 -69 -11 -40 0 -66 -7 -98 -26 l-44 -25 28 -50 c29 -51 89 -92 102 -71 4 6
18 15 31 20 24 9 24 10 -15 21 -46 13 -87 37 -45 26 14 -3 41 -8 60 -12 19 -3
43 -15 54 -25 15 -16 26 -18 65 -13 l47 6 37 -71 c20 -39 39 -93 43 -121 4
-27 10 -51 14 -54 11 -7 -8 115 -27 170 -9 28 -17 55 -18 60 -4 35 -18 84 -25
82 -4 -1 -25 20 -45 47 -32 41 -34 46 -14 36 l24 -13 -20 24 c-26 30 -87 89
-92 89 -2 0 -1 -9 2 -20z"/>
</g>
</svg>
